<svg xmlns="http://www.w3.org/2000/svg" viewBox="0 0 1200 760"><rect width="1200" height="760" fill="#0d1117"/><rect x="0" y="0" width="200" height="760" rx="0" fill="#161b22"/><text x="20" y="40" font-size="18" fill="#e6edf3" font-weight="700" text-anchor="start" font-family="-apple-system, Helvetica, sans-serif">TrainerPro</text><rect x="10" y="70" width="180" height="38" rx="8" fill="#21262d"/><text x="24" y="95" font-size="14" fill="#e6edf3" font-weight="600" text-anchor="start" font-family="-apple-system, Helvetica, sans-serif">Workouts</text><text x="24" y="139" font-size="14" fill="#8b949e" font-weight="400" text-anchor="start" font-family="-apple-system, Helvetica, sans-serif">Devices</text><text x="24" y="183" font-size="14" fill="#8b949e" font-weight="400" text-anchor="start" font-family="-apple-system, Helvetica, sans-serif">History</text><text x="24" y="227" font-size="14" fill="#8b949e" font-weight="400" text-anchor="start" font-family="-apple-system, Helvetica, sans-serif">Settings</text><text x="20" y="730" font-size="11" fill="#8b949e" font-weight="400" text-anchor="start" font-family="-apple-system, Helvetica, sans-serif">🚴 connected   ❤ connected</text><text x="240" y="48" font-size="24" fill="#e6edf3" font-weight="700" text-anchor="start" font-family="-apple-system, Helvetica, sans-serif">Workouts</text><rect x="240" y="66" width="920" height="64" rx="12" fill="#161b22" stroke="#30363d"/><text x="300" y="94" font-size="13" fill="#8b949e" font-weight="400" text-anchor="middle" font-family="-apple-system, Helvetica, sans-serif">Mon</text><text x="300" y="114" font-size="14" fill="#3fb950" font-weight="700" text-anchor="middle" font-family="-apple-system, Helvetica, sans-serif">✓</text><text x="428" y="94" font-size="13" fill="#8b949e" font-weight="400" text-anchor="middle" font-family="-apple-system, Helvetica, sans-serif">Tue</text><text x="428" y="114" font-size="14" fill="#3fb950" font-weight="700" text-anchor="middle" font-family="-apple-system, Helvetica, sans-serif">✓</text><rect x="512" y="74" width="88" height="48" rx="10" fill="#1b2536" stroke="#388bfd"/><text x="556" y="94" font-size="13" fill="#e6edf3" font-weight="700" text-anchor="middle" font-family="-apple-system, Helvetica, sans-serif">Wed</text><text x="556" y="114" font-size="14" fill="#388bfd" font-weight="700" text-anchor="middle" font-family="-apple-system, Helvetica, sans-serif">•</text><text x="684" y="94" font-size="13" fill="#8b949e" font-weight="400" text-anchor="middle" font-family="-apple-system, Helvetica, sans-serif">Thu</text><text x="684" y="114" font-size="14" fill="#8b949e" font-weight="700" text-anchor="middle" font-family="-apple-system, Helvetica, sans-serif">·</text><text x="812" y="94" font-size="13" fill="#8b949e" font-weight="400" text-anchor="middle" font-family="-apple-system, Helvetica, sans-serif">Fri</text><text x="812" y="114" font-size="14" fill="#8b949e" font-weight="700" text-anchor="middle" font-family="-apple-system, Helvetica, sans-serif">—</text><text x="940" y="94" font-size="13" fill="#8b949e" font-weight="400" text-anchor="middle" font-family="-apple-system, Helvetica, sans-serif">Sat</text><text x="940" y="114" font-size="14" fill="#8b949e" font-weight="700" text-anchor="middle" font-family="-apple-system, Helvetica, sans-serif">·</text><text x="1068" y="94" font-size="13" fill="#8b949e" font-weight="400" text-anchor="middle" font-family="-apple-system, Helvetica, sans-serif">Sun</text><text x="1068" y="114" font-size="14" fill="#8b949e" font-weight="700" text-anchor="middle" font-family="-apple-system, Helvetica, sans-serif">—</text><rect x="240" y="150" width="920" height="240" rx="14" fill="#161b22" stroke="#388bfd"/><text x="266" y="186" font-size="12" fill="#388bfd" font-weight="700" text-anchor="start" font-family="-apple-system, Helvetica, sans-serif">TODAY · FROM WORKOUTPLANNER</text><text x="266" y="220" font-size="26" fill="#e6edf3" font-weight="800" text-anchor="start" font-family="-apple-system, Helvetica, sans-serif">Sweet Spot 3x12</text><text x="266" y="246" font-size="14" fill="#8b949e" font-weight="400" text-anchor="start" font-family="-apple-system, Helvetica, sans-serif">1:02 · IF 0.86 · TSS 74 · 3× (12:00 @ 88% / 4:00 @ 50%)</text><rect x="266" y="264" width="620" height="100" rx="6" fill="#0a0d12"/><rect x="268.0" y="337.0" width="65.88888888888889" height="27.0" fill="#388bfd" opacity="0.9"/><rect x="336.8888888888889" y="323.5" width="65.88888888888889" height="40.5" fill="#388bfd" opacity="0.9"/><rect x="405.77777777777777" y="296.5" width="65.88888888888889" height="67.5" fill="#3fb950" opacity="0.9"/><rect x="474.66666666666663" y="328.0" width="65.88888888888889" height="36.0" fill="#388bfd" opacity="0.9"/><rect x="543.5555555555555" y="296.5" width="65.88888888888889" height="67.5" fill="#3fb950" opacity="0.9"/><rect x="612.4444444444445" y="328.0" width="65.88888888888889" height="36.0" fill="#388bfd" opacity="0.9"/><rect x="681.3333333333333" y="296.5" width="65.88888888888889" height="67.5" fill="#3fb950" opacity="0.9"/><rect x="750.2222222222222" y="332.5" width="65.88888888888889" height="31.5" fill="#388bfd" opacity="0.9"/><rect x="819.1111111111111" y="341.5" width="65.88888888888889" height="22.5" fill="#388bfd" opacity="0.9"/><rect x="920" y="264" width="214" height="46" rx="8" fill="#388bfd"/><text x="1027.0" y="292.0" font-size="14" fill="#fff" font-weight="600" text-anchor="middle" font-family="-apple-system, Helvetica, sans-serif">Ride now</text><rect x="920" y="322" width="214" height="40" rx="8" fill="#21262d" stroke="#30363d"/><text x="1027.0" y="347.0" font-size="14" fill="#e6edf3" font-weight="600" text-anchor="middle" font-family="-apple-system, Helvetica, sans-serif">Edit in Planner ↗</text><text x="266" y="380" font-size="12" fill="#3fb950" font-weight="400" text-anchor="start" font-family="-apple-system, Helvetica, sans-serif">Completed rides sync back — yesterday's Endurance 90' marked done ✓</text><text x="240" y="430" font-size="16" fill="#e6edf3" font-weight="700" text-anchor="start" font-family="-apple-system, Helvetica, sans-serif">Local library</text><rect x="240" y="448" width="450" height="84" rx="12" fill="#161b22" stroke="#30363d"/><rect x="256" y="462" width="130" height="56" rx="6" fill="#0a0d12"/><rect x="258.0" y="500.36" width="11.444444444444445" height="17.639999999999997" fill="#388bfd" opacity="0.9"/><rect x="272.44444444444446" y="487.76" width="11.444444444444445" height="30.240000000000002" fill="#d29922" opacity="0.9"/><rect x="286.8888888888889" y="475.15999999999997" width="11.444444444444445" height="42.84" fill="#d29922" opacity="0.9"/><rect x="301.3333333333333" y="497.84" width="11.444444444444445" height="20.160000000000004" fill="#388bfd" opacity="0.9"/><rect x="315.77777777777777" y="475.15999999999997" width="11.444444444444445" height="42.84" fill="#d29922" opacity="0.9"/><rect x="330.22222222222223" y="497.84" width="11.444444444444445" height="20.160000000000004" fill="#388bfd" opacity="0.9"/><rect x="344.6666666666667" y="475.15999999999997" width="11.444444444444445" height="42.84" fill="#d29922" opacity="0.9"/><rect x="359.1111111111111" y="500.36" width="11.444444444444445" height="17.639999999999997" fill="#388bfd" opacity="0.9"/><rect x="373.55555555555554" y="505.4" width="11.444444444444445" height="12.6" fill="#388bfd" opacity="0.9"/><text x="402" y="486" font-size="15" fill="#e6edf3" font-weight="700" text-anchor="start" font-family="-apple-system, Helvetica, sans-serif">Threshold 2x20</text><text x="402" y="508" font-size="12" fill="#8b949e" font-weight="400" text-anchor="start" font-family="-apple-system, Helvetica, sans-serif">1:12 · TSS 96</text><rect x="240" y="544" width="450" height="84" rx="12" fill="#161b22" stroke="#30363d"/><rect x="256" y="558" width="130" height="56" rx="6" fill="#0a0d12"/><rect x="258.0" y="596.36" width="11.444444444444445" height="17.639999999999997" fill="#388bfd" opacity="0.9"/><rect x="272.44444444444446" y="588.8" width="11.444444444444445" height="25.2" fill="#3fb950" opacity="0.9"/><rect x="286.8888888888889" y="586.28" width="11.444444444444445" height="27.720000000000006" fill="#3fb950" opacity="0.9"/><rect x="301.3333333333333" y="588.8" width="11.444444444444445" height="25.2" fill="#3fb950" opacity="0.9"/><rect x="315.77777777777777" y="586.28" width="11.444444444444445" height="27.720000000000006" fill="#3fb950" opacity="0.9"/><rect x="330.22222222222223" y="588.8" width="11.444444444444445" height="25.2" fill="#3fb950" opacity="0.9"/><rect x="344.6666666666667" y="586.28" width="11.444444444444445" height="27.720000000000006" fill="#3fb950" opacity="0.9"/><rect x="359.1111111111111" y="588.8" width="11.444444444444445" height="25.2" fill="#3fb950" opacity="0.9"/><rect x="373.55555555555554" y="598.88" width="11.444444444444445" height="15.120000000000001" fill="#388bfd" opacity="0.9"/><text x="402" y="582" font-size="15" fill="#e6edf3" font-weight="700" text-anchor="start" font-family="-apple-system, Helvetica, sans-serif">Endurance 90'</text><text x="402" y="604" font-size="12" fill="#8b949e" font-weight="400" text-anchor="start" font-family="-apple-system, Helvetica, sans-serif">1:30 · TSS 62</text><rect x="710" y="448" width="450" height="180" rx="12" fill="#161b22" stroke="#30363d"/><text x="935" y="530" font-size="15" fill="#8b949e" font-weight="600" text-anchor="middle" font-family="-apple-system, Helvetica, sans-serif">+ Import file…</text></svg>